# File created by Blade
# Date/Time:  Wed Jan 21 17:57:11 2015
# Frame Rate: 120.000 fps
#------------------------------------------------------
:FULLY-SPECIFIED
:DEGREES
1634
root 18.427520 30.283082 -14.480225 -88.247188 0.284201 -180.709522
Spine 68.148551 -0.769031 1.675166
Head 195.261689 -3.182855 178.283883
LeftShoulder 29.048742 -65.905965 16.818109
LeftArm 0.547748 8.515101 -3.275704
LeftForeArm 64.783385 -0.000000 90.703685
LeftHand -3.089031 -0.000000 31.775287
LeftHandThumb1 -26.253704 0.000000 33.147579
RightShoulder 11.046714 23.400601 -31.758171
RightArm 20.067192 45.308586 14.928887
RightForeArm -75.675026 0.000000 85.936126
RightHand -9.340980 -0.000000 -32.199280
RightHandThumb1 -24.326973 -0.000000 -32.862282
LeftUpLeg -99.182355 28.562960 -2.838509
LeftLeg 1.022346 -0.000000 -0.000000
LeftFoot -14.327701 10.668896 -20.927063
LeftToeBase 33.843418 -0.000000 -0.000000
RightUpLeg -101.812436 -29.483407 7.845499
RightLeg -1.800244 -0.000000 0.000000
RightFoot -7.270374 -13.518778 26.614258
RightToeBase 30.283567 -0.000000 -0.000000
1635
root 18.427498 30.290552 -14.520569 -88.333522 0.317261 -180.720722
Spine 68.174704 -0.791907 1.576934
Head 195.121013 -3.139103 178.191443
LeftShoulder 29.202894 -65.800965 16.636897
LeftArm 0.701080 8.498519 -3.312310
LeftForeArm 64.758816 -0.000000 90.431602
LeftHand -2.923713 -0.000000 32.023286
LeftHandThumb1 -26.253704 0.000000 33.147579
RightShoulder 11.127277 23.320657 -31.828501
RightArm 19.689449 45.050214 14.371552
RightForeArm -75.395874 0.000000 85.653785
RightHand -9.300747 -0.000000 -32.599675
RightHandThumb1 -24.326973 -0.000000 -32.862282
LeftUpLeg -99.031980 28.546913 -2.789439
LeftLeg 1.085089 -0.000000 -0.000000
LeftFoot -14.404942 10.718461 -20.953048
LeftToeBase 33.789543 -0.000000 -0.000000
RightUpLeg -101.721442 -29.485300 7.875776
RightLeg -1.790185 -0.000000 0.000000
RightFoot -7.251367 -13.541971 26.616906
RightToeBase 30.176960 -0.000000 -0.000000
1636
root 18.427157 30.298015 -14.562639 -88.441867 0.410565 -180.723422
Spine 68.268704 -0.758692 1.430628
Head 195.344563 -3.364893 178.091705
LeftShoulder 29.156990 -65.852845 16.695911
LeftArm 0.859530 8.578167 -3.472751
LeftForeArm 64.781204 -0.000000 90.190622
LeftHand -2.832384 0.000000 32.115765
LeftHandThumb1 -26.253704 0.000000 33.147579
RightShoulder 11.041221 23.192765 -31.933707
RightArm 19.469605 44.765697 13.983714
RightForeArm -75.403555 -0.000000 85.404545
RightHand -9.659224 0.000000 -32.893010
RightHandThumb1 -24.326973 -0.000000 -32.862282
LeftUpLeg -98.812274 28.543853 -2.765691
LeftLeg 1.104778 -0.000000 -0.000000
LeftFoot -14.493681 10.775590 -20.972932
LeftToeBase 33.812412 -0.000000 -0.000000
RightUpLeg -101.660897 -29.471300 7.879594
RightLeg -1.720534 -0.000000 0.000000
RightFoot -7.246732 -13.486211 26.609231
RightToeBase 30.324548 -0.000000 -0.000000
1637
root 18.428093 30.308662 -14.602814 -88.568909 0.494570 -180.680572
Spine 68.334395 -0.731069 1.274216
Head 195.379250 -3.209231 178.028876
LeftShoulder 28.993161 -65.671598 16.829730
LeftArm 1.029939 8.543223 -3.507781
LeftForeArm 64.653225 -0.000000 89.873853
LeftHand -2.766884 -0.000000 32.092978
LeftHandThumb1 -26.253704 0.000000 33.147579
RightShoulder 10.994614 22.400388 -32.014467
RightArm 19.720187 45.111271 13.737979
RightForeArm -75.262162 -0.000000 85.083317
RightHand -10.089584 -0.000000 -33.006178
RightHandThumb1 -24.326973 -0.000000 -32.862282
LeftUpLeg -98.599180 28.588155 -2.759484
LeftLeg 1.132030 -0.000000 -0.000000
LeftFoot -14.565937 10.780736 -21.002779
LeftToeBase 33.848965 -0.000000 -0.000000
RightUpLeg -101.414415 -29.444186 7.688622
RightLeg -1.774499 -0.000000 0.000000
RightFoot -7.227776 -13.586074 26.721256
RightToeBase 30.290047 -0.000000 -0.000000
1638
root 18.430876 30.315745 -14.634948 -88.700673 0.544288 -180.634949
Spine 68.363078 -0.673245 1.218758
Head 195.498172 -3.266342 177.933211
LeftShoulder 29.010203 -65.656594 16.767458
LeftArm 1.244978 8.688477 -3.604604
LeftForeArm 64.598601 -0.000000 89.537632
LeftHand -2.650089 0.000000 32.207106
LeftHandThumb1 -26.253704 0.000000 33.147579
RightShoulder 10.900003 22.421009 -32.169163
RightArm 19.554373 44.615873 13.478630
RightForeArm -75.060205 0.000000 84.848302
RightHand -10.337496 -0.000000 -33.173622
RightHandThumb1 -24.326973 -0.000000 -32.862282
LeftUpLeg -98.442249 28.634962 -2.755141
LeftLeg 1.209467 -0.000000 -0.000000
LeftFoot -14.634836 10.772020 -20.979505
LeftToeBase 33.812785 -0.000000 -0.000000
RightUpLeg -101.231973 -29.393844 7.563629
RightLeg -1.745726 -0.000000 0.000000
RightFoot -7.316773 -13.657734 26.691287
RightToeBase 30.323119 -0.000000 -0.000000
1639
root 18.432442 30.321233 -14.675101 -88.973798 0.599009 -180.593400
Spine 68.553624 -0.657144 1.102529
Head 195.541827 -3.035275 177.980590
LeftShoulder 28.880628 -65.583291 16.868097
LeftArm 1.438678 8.787458 -3.632959
LeftForeArm 64.500854 -0.000000 89.119900
LeftHand -2.479746 -0.000000 32.321828
LeftHandThumb1 -26.253704 0.000000 33.147579
RightShoulder 10.757776 20.971074 -32.278621
RightArm 20.330037 45.643228 13.454330
RightForeArm -74.852618 -0.000000 84.243688
RightHand -10.411652 0.000000 -33.414065
RightHandThumb1 -24.326973 -0.000000 -32.862282
LeftUpLeg -98.087641 28.685921 -2.687324
LeftLeg 1.236088 -0.000000 -0.000000
LeftFoot -14.701937 10.737136 -20.920999
LeftToeBase 33.825360 -0.000000 -0.000000
RightUpLeg -100.961900 -29.374391 7.481104
RightLeg -1.659848 -0.000000 0.000000
RightFoot -7.280457 -13.487498 26.743660
RightToeBase 30.301786 -0.000000 -0.000000
1640
root 18.433353 30.327954 -14.710900 -89.161815 0.630406 -180.591554
Spine 68.610452 -0.645466 1.133795
Head 195.596706 -3.141328 177.765141
LeftShoulder 28.887602 -65.425193 16.804551
LeftArm 1.685666 8.803731 -3.665571
LeftForeArm 64.450786 -0.000000 88.747434
LeftHand -2.427381 -0.000000 32.373731
LeftHandThumb1 -26.253704 0.000000 33.147579
RightShoulder 10.775236 20.848707 -32.377055
RightArm 19.955513 45.289743 12.957632
RightForeArm -74.647901 0.000000 83.967209
RightHand -10.526212 0.000000 -33.646729
RightHandThumb1 -24.326973 -0.000000 -32.862282
LeftUpLeg -97.855350 28.681091 -2.662515
LeftLeg 1.274750 -0.000000 -0.000000
LeftFoot -14.754246 10.711633 -20.935196
LeftToeBase 33.858243 -0.000000 -0.000000
RightUpLeg -100.785446 -29.371473 7.432815
RightLeg -1.563572 -0.000000 0.000000
RightFoot -7.358464 -13.410170 26.640176
RightToeBase 30.442317 -0.000000 -0.000000
1641
root 18.436757 30.335094 -14.741748 -89.357861 0.674290 -180.530565
Spine 68.633327 -0.656279 1.012889
Head 195.604316 -3.099884 177.680764
LeftShoulder 28.717832 -65.233519 16.810988
LeftArm 1.987692 8.947827 -3.599404
LeftForeArm 64.235075 -0.000000 88.272465
LeftHand -2.386135 -0.000000 32.724205
LeftHandThumb1 -26.253704 0.000000 33.147579
RightShoulder 10.787057 20.813581 -32.441549
RightArm 20.149743 44.966041 12.922161
RightForeArm -74.736238 -0.000000 83.513230
RightHand -10.527203 -0.000000 -33.883505
RightHandThumb1 -24.326973 -0.000000 -32.862282
LeftUpLeg -97.568928 28.752023 -2.568335
LeftLeg 1.284372 -0.000000 -0.000000
LeftFoot -14.824268 10.743100 -20.952944
LeftToeBase 33.847521 -0.000000 -0.000000
RightUpLeg -100.572231 -29.317583 7.284762
RightLeg -1.440256 -0.000000 0.000000
RightFoot -7.442154 -13.398477 26.605055
RightToeBase 30.256894 -0.000000 -0.000000
1642
root 18.441052 30.340390 -14.775254 -89.590436 0.715700 -180.482416
Spine 68.714363 -0.668519 0.890806
Head 195.666190 -3.291085 177.417860
LeftShoulder 28.321660 -65.068545 17.119614
LeftArm 2.217065 8.990551 -3.662034
LeftForeArm 64.217508 -0.000000 87.867196
LeftHand -2.289288 0.000000 32.743712
LeftHandThumb1 -26.253704 0.000000 33.147579
RightShoulder 10.708569 20.387934 -32.487661
RightArm 20.712983 45.079584 13.077379
RightForeArm -74.813919 -0.000000 82.932111
RightHand -10.544369 -0.000000 -34.156723
RightHandThumb1 -24.326973 -0.000000 -32.862282
LeftUpLeg -97.252347 28.812406 -2.502620
LeftLeg 1.283281 -0.000000 -0.000000
LeftFoot -14.857598 10.708351 -20.966299
LeftToeBase 33.752207 -0.000000 -0.000000
RightUpLeg -100.349061 -29.284767 7.163825
RightLeg -1.299201 -0.000000 0.000000
RightFoot -7.498467 -13.291017 26.652539
RightToeBase 30.306709 -0.000000 -0.000000
1643
root 18.442845 30.345515 -14.810582 -89.852966 0.753851 -180.445609
Spine 68.837924 -0.735682 0.795478
Head 195.724055 -3.185382 177.308036
LeftShoulder 28.028319 -64.876820 17.257694
LeftArm 2.444997 9.037472 -3.614479
LeftForeArm 64.241452 -0.000000 87.380644
LeftHand -2.296073 -0.000000 33.120686
LeftHandThumb1 -26.253704 0.000000 33.147579
RightShoulder 10.651907 20.250455 -32.633741
RightArm 21.089503 44.984145 13.189204
RightForeArm -74.899282 0.000000 82.346874
RightHand -10.585205 -0.000000 -34.529012
RightHandThumb1 -24.326973 -0.000000 -32.862282
LeftUpLeg -96.916226 28.851382 -2.451203
LeftLeg 1.277797 -0.000000 -0.000000
LeftFoot -14.903306 10.667001 -20.938325
LeftToeBase 33.740926 -0.000000 -0.000000
RightUpLeg -99.976639 -29.282868 6.883600
RightLeg -1.235723 -0.000000 0.000000
RightFoot -7.673087 -13.373575 26.743631
RightToeBase 30.480610 -0.000000 -0.000000
1644
root 18.448043 30.355302 -14.839070 -90.036837 0.773071 -180.392427
Spine 68.849106 -0.735354 0.796047
Head 195.766763 -2.997459 177.247074
LeftShoulder 27.903416 -64.784253 17.317147
LeftArm 2.580016 9.079698 -3.691965
LeftForeArm 64.258378 -0.000000 86.988035
LeftHand -1.999510 -0.000000 33.225827
LeftHandThumb1 -26.253704 0.000000 33.147579
RightShoulder 10.603152 20.073829 -32.653117
RightArm 21.497418 45.018894 13.290803
RightForeArm -75.096766 0.000000 81.786130
RightHand -10.509699 0.000000 -34.758365
RightHandThumb1 -24.326973 -0.000000 -32.862282
LeftUpLeg -96.750956 28.901603 -2.499309
LeftLeg 1.330305 -0.000000 -0.000000
LeftFoot -14.894515 10.560318 -20.965655
LeftToeBase 33.722722 -0.000000 -0.000000
RightUpLeg -99.298780 -29.345315 6.178291
RightLeg -1.482836 -0.000000 0.000000
RightFoot -7.759193 -13.766279 27.070146
RightToeBase 30.342703 -0.000000 -0.000000
